<?xml version="1.0" encoding="UTF-8" standalone="no"?>
<!-- Created with Inkscape (http://www.inkscape.org/) -->
<svg xmlns="http://www.w3.org/2000/svg"
     version="1.1" width="358" height="160">
  <defs>
    <linearGradient id="earGrdnt" gradientUnits="userSpaceOnUse"
                    x1="110.02209" y1="51.86174" x2="111.48007" y2="79.30968">
      <stop stop-color="#b26f3e" offset="0"/>
      <stop stop-color="#c27f4c" offset="0.34"/>
      <stop stop-color="#d2905a" offset="0.38"/>
      <stop stop-color="#de9757" offset="1"/>
    </linearGradient>
    <linearGradient id="bodyGrdnt" gradientUnits="userSpaceOnUse"
                    x1="4.86908" y1="100.45616" x2="126.15780" y2="100.58922">
      <stop stop-color="#cfa58f" offset="0"/>
      <stop stop-color="#cfa58f" offset="0.10"/>
      <stop stop-color="#a38489" offset="0.16"/>
      <stop stop-color="#ae837a" offset="0.55"/>
      <stop stop-color="#e09659" offset="1"/>
    </linearGradient>
    <linearGradient id="tailGrdnt" gradientUnits="userSpaceOnUse"
                    x1="131.34204" y1="44.71846" x2="358.49534" y2="137.58960">
      <stop stop-color="#a5858a" offset="0"/>
      <stop stop-color="#c68356" offset="1"/>
    </linearGradient>
    <linearGradient id="tailShadowGrdnt" gradientUnits="userSpaceOnUse"
                    x1="131.75229" y1="71.38847" x2="324.37153" y2="115.29603">
      <stop stop-color="#724e50" offset="0"/>
      <stop stop-color="#865547" offset="1"/>
    </linearGradient>
    <linearGradient id="bodyHighlightGrdnt" gradientUnits="userSpaceOnUse"
                    x1="19.93924" y1="115.36506" x2="34.97104" y2="115.36506">
      <stop stop-color="#cc9e88" offset="0"/>
      <stop stop-color="#c6927a" offset="0.38"/>
      <stop stop-color="#c0876c" offset="0.46"/>
      <stop stop-color="#b47050" offset="1"/>
    </linearGradient>
    <linearGradient id="lightShadowGrdnt" gradientUnits="userSpaceOnUse"
                    x1="3.66565" y1="118.17428" x2="40.80484" y2="118.17428">
      <stop stop-color="#916356" offset="0"/>
      <stop stop-color="#936253" offset="1"/>
    </linearGradient>
    <linearGradient id="bodyShadowGrdnt" gradientUnits="userSpaceOnUse"
                    x1="6.26770" y1="101.68529" x2="75.86960" y2="101.68529">
      <stop stop-color="#724e52" offset="0"/>
      <stop stop-color="#774f4d" offset="0.84"/>
      <stop stop-color="#81554c" offset="1"/>
    </linearGradient>
    <linearGradient id="bottomShadowGrdnt" gradientUnits="userSpaceOnUse"
                    x1="46.05270" y1="165.99605" x2="82.05285" y2="165.99605">
      <stop stop-color="#734f53" offset="0"/>
      <stop stop-color="#9c7075" offset="1"/>
    </linearGradient>
    <linearGradient id="sideShadowGrdnt" gradientUnits="userSpaceOnUse"
                    x1="70.95987" y1="121.43042" x2="101.73797" y2="121.43042">
      <stop stop-color="#875648" offset="0"/>
      <stop stop-color="#a9643a" offset="1"/>
    </linearGradient>
    <filter id="tailShadowFltr"><feGaussianBlur stdDeviation="0.88"/></filter>
    <filter id="lightShadowFltr"><feGaussianBlur stdDeviation="0.35"/></filter>
    <filter id="bottomShadowFltr"><feGaussianBlur stdDeviation="0.13"/></filter>
    <filter id="pawHilgihtFltr"><feGaussianBlur stdDeviation="0.11"/></filter>
    <filter id="sideShadowFltr"><feGaussianBlur stdDeviation="0.29"/></filter>
    <filter id="bodyShadowFltr"><feGaussianBlur stdDeviation="0.54"/></filter>
    <filter id="browShadowFltr"><feGaussianBlur stdDeviation="0.23"/></filter>
    <clipPath clipPathUnits="userSpaceOnUse" id="clip">
      <rect width="358" height="160" x="2.4889491" y="12.924028"/>
    </clipPath>
  </defs>
  <g transform="translate(-2.4889491,-12.924028)" clip-path="url(#clip)">
    <!-- Body -->
    <path fill="url(#bodyGrdnt)"
          d="m 8.0354742,170.6836 c -2.69061,-10.60486 -4.93677,-13.52642 -1.1764,-27.56626 1.17351,-4.38146 10.5066498,-14.54292 15.4502498,-16.80059 12.19908,-5.57114 14.21154,-8.0204 2.36979,-8.28651 -4.65214,-0.10454 -10.904,-2.06592 3.47915,-4.75402 3.41332,-0.63793 2.87769,-0.57298 4.33803,-2.72043 -0.006,-3.98377 -3.89342,-6.87957 -7.17519,-7.55781 -1.96155,-0.4054 -3.70818,-1.961 -5.58871,-4.977486 -1.50449,-2.41328 -3.74896,-6.86524 -4.83326,-7.84652 -1.08431,-0.98128 -3.43369,-5.08505 -4.88745,-8.88949 -2.9468698,-7.71186 -2.5728798,-11.40396 0.96796,-12.79385 1.22214,-0.47973 5.37794,-2.90322 8.2594,-5.38555 7.89701,-6.80315 23.47792,-15.40562 43.56662,-24.05385 2.45414,-1.05651 4.14643,-2.61126 4.7653,-4.37798 0.52782,-1.50681 2.52469,-3.80803 4.43748,-5.11383 3.02477,-2.06491 3.8466,-2.22141 6.30902,-1.20144 3.08221,1.27669 7.18257,8.42246 7.18257,12.5172 0,1.71516 1.43371,3.44052 5.08794,6.12298 l 5.08795,3.73489 c 6.543256,8.52217 10.280856,11.07583 13.824106,32.59002 0,4.74855 -2.46766,12.55294 -7.78157,24.610526 -6.043846,13.71385 -8.505726,25.02879 -7.717076,35.46806 1.04979,13.8958 2.7675,18.50218 9.206516,24.68904 l 5.56065,5.3429 -50.017676,0 -50.0176898,0 z"/>
    <path fill="url(#earGrdnt)"
          d="m 110.24289,78.583834 c -1.7138,-8.0785 -6.43478,-16.6852 -9.54259,-22.72641 -1.185406,-1.98259 -1.889816,-3.49258 -1.833906,-3.49258 4.534176,-0.62522 9.379266,-0.58401 14.054786,-0.44083 9.94196,0.10179 12.6478,-1.25803 12.7996,4.3719 -2.92379,7.84204 -6.79318,13.75872 -11.87008,20.66967 -1.03194,1.07272 -2.70472,3.41738 -3.60781,1.61825 z"/>
    <path fill="url(#bodyHighlightGrdnt)"
          d="m 19.939244,116.16799 c 4.38333,-2.97128 10.34771,-3.84179 13.73082,-4.78174 2.77622,2.16456 0.56253,5.649 -1.56423,7.62794 -3.12271,1.01543 -11.96288,-0.42185 -12.16659,-2.8462 z"/>
    <path fill="url(#lightShadowGrdnt)" filter="url(#lightShadowFltr)"
          d="m 5.9815442,162.3892 c -1.31879,-2.38873 -0.50305,-5.44329 -1.44905,-4.85864 -2.69433,1.66519 1.44157,-12.93997 4.90008,-17.30373 4.3752298,-5.52042 14.7653898,-14.47553 16.1926998,-15.30807 4.51629,-2.63432 9.1028,-4.55525 5.01817,-6.42547 0.003,-1.11512 0.67839,-3.31643 1.5,-4.8918 2.1853,-4.19011 1.8972,-5.0724 -2.25616,-6.90931 -5.27053,-2.33101 -13.85191,-15.259376 -15.49843,-23.349316 -0.65788,-3.23238 -1.44951,-6.10206 -1.75917,-6.37706 -0.30967,-0.275 -0.0444,-2.05535 0.58941,-3.95633 0.75143,-3.89974 1.75293,-4.31224 3.17156,-1.90854 5.66223,5.42648 13.34036,14.54559 15.62826,17.93571 3.2114,4.00763 7.37559,6.38098 9.30569,9.84939 2.11282,3.796756 3.58531,6.921696 2.5629,14.881126 -1.41618,11.02494 -1.25678,17.68611 -11.13536,24.51454 -12.49076,13.32133 -12.60568,17.76367 -20.83899,31.25981 -1.82293,-0.57392 -4.9097098,-5.58449 -5.9316098,-7.15231 z"/>
    <path fill="url(#bodyShadowGrdnt)" filter="url(#bodyShadowFltr)"
          d="m 11.058374,173.59576 c 0.45174,0.0422 -1.8470498,-2.01841 -3.3521498,-3.62961 -2.08933,-2.23665 -1.40837,-3.98739 -0.98649,-6.11407 0.54803,-2.76258 0.55739,-2.7657 1.14094,-0.3797 0.5574,2.27906 0.67932,2.31479 2.3155398,0.67857 0.94995,-0.94994 1.72588,-2.25752 1.7243,-2.90574 -0.003,-1.4077 4.32776,-12.46481 7.21566,-18.42085 1.39475,-2.87656 3.79916,-5.3987 7.46868,-7.83439 8.69364,-5.77051 13.31853,-10.65583 13.31853,-14.06849 0,-1.62516 -0.5625,-3.5215 -1.25,-4.21409 -1.00203,-1.00944 -0.91564,-1.13199 0.43551,-0.61775 1.43189,0.54496 1.56955,0.21532 0.91482,-2.19076 -0.44315,-1.62854 -0.33713,-3.53816 0.24945,-4.49323 2.21949,-3.61377 -3.42967,-14.839006 -7.46781,-14.839006 -2.72914,0 -9.282,-6.94606 -12.4489,-13.19589 -0.92083,-1.81726 -2.30861,-4.0296 -3.08395,-4.91632 -0.77533,-0.88671 -1.78889,-2.93439 -2.25235,-4.55039 -0.71125,-2.47996 -2.25737,-2.90742 0.16753,-5.62136 3.60777,-3.96487 8.7553,-6.09615 13.20998,-8.70133 3.48899,-1.74962 5.3606,-4.55241 9.01216,-5.01471 2.17329,-0.47041 3.22173,-1.08483 4.30823,-2.46609 1.0669,-1.35635 2.12885,-1.6752 2.50288,-1.90303 2.07381,-2.6972 18.51473,-9.67243 22.19345,-9.16326 2.49696,-0.42369 0.75476,1.92407 -4.94045,7.53238 -4.81762,4.74411 -6.47708,7.04027 -6.14302,8.5 0.25173,1.1 -0.12018,4.25 -0.82647,7 -1.13112,4.40406 -1.70841,5.14243 -4.84355,6.19501 -1.95766,0.65725 -6.1004,1.29781 -9.20609,1.42346 -4.56237,0.18458 -5.85643,0.62721 -6.73877,2.30499 -0.60063,1.1421 -1.54587,2.37209 -2.10053,2.73332 -0.64101,0.41746 -0.35404,2.0359 0.78756,4.44165 1.9268,4.06042 9.56943,15.61546 12.50172,18.90157 3.5619,3.991696 5.29701,8.872556 5.32164,14.969786 0.0364,9.01962 -1.82296,20.08346 -3.93355,23.40557 -2.32721,3.66305 -9.80084,10.28139 -14.11949,12.50365 -1.7875,0.91979 -3.25,2.20639 -3.25,2.85911 0,0.65271 -1.22401,2.16275 -2.72003,3.35563 l -2.72004,2.16888 1.72004,5.45658 c 0.94602,3.00111 1.72003,6.67793 1.72003,8.1707 l 0,2.71413 -8.02526,-0.19342 c -4.4139,-0.10639 -8.12464,0.09 -7.81975,0.1185 z m 59.1208,-141.690266 c 2.14464,-2.31988 6.37105,-3.92473 6.28752,-2.36522 -0.10536,1.96672 -3.60261,6.06291 -4.9635,6.38915 l -6.68895,1.7794 z"/>
    <path fill="url(#bottomShadowGrdnt)" filter="url(#bottomShadowFltr)"
          d="m 47.501204,172.68584 c -1.77462,-2.13829 -1.96823,-9.96439 -0.30524,-12.33865 3.43946,-4.91052 12.94934,-2.5909 22.48128,5.48356 2.54342,2.15452 6.36842,4.90989 8.5,6.12304 l 3.8756,2.20574 -16.62755,0.0443 c -13.89163,0.037 -16.84089,-0.21278 -17.92409,-1.51795 z"/>
    <path fill="#d0a38c" filter="url(#pawHilgihtFltr)"
          d="m 42.760644,162.83905 c -0.49004,0.16493 0.22302,-0.14123 -0.11167,0.0553 -0.80693,0.39259 -1.42507,1.10299 -1.91081,1.73216 -0.49961,0.71777 -0.57474,0.99038 -0.7101,2.09854 -0.18153,2.38431 -0.003,4.11289 0.74219,6.14979 1.46459,2.76653 6.46825,3.33989 7.50482,0.83332 0.23734,-3.87724 -2.89572,-8.58389 -5.51443,-10.86911 z"/>
    <path fill="url(#sideShadowGrdnt)" filter="url(#sideShadowFltr)"
          d="m 75.842824,134.966 c -5.3482,-1.96352 -5.79964,-8.63658 -3.75977,-12.13778 4.29744,-7.20236 12.48446,-8.53652 18.81523,-11.08349 l 10.839696,-4.37189 -0.67918,3.63488 c -1.481546,3.34995 -1.379666,6.95085 -2.808226,9.79195 -0.80051,1.56361 -1.76494,4.70622 -2.14316,6.98359 -0.62029,3.73496 -1.09727,4.28917 -4.86824,5.65651 -5.52518,2.0034 -11.43468,2.58921 -15.39635,1.52623 z"/>
    <!-- Tail -->
    <path fill="url(#tailGrdnt)"
          d="m 139.75101,169.15209 c 9.6029,-5.49718 15.86664,-17.49087 22.27077,-27.59001 7.19311,-11.34332 4.75517,-12.39796 11.84274,-26.09628 11.46956,-22.167506 26.16795,-47.970136 29.35148,-51.525716 1.73624,-1.93915 5.67149,-6.92611 8.74502,-11.08213 5.89373,-7.96951 18.84413,-18.74241 31.46022,-26.17047 7.44391,-4.382785 21.03456,-9.153575 30.362,-10.658105 9.82776,-1.58523 28.01772,-1.3079 36.30259,0.5535 8.37102,1.88075 9.25856,2.43866 10.03209,6.30633 0.4373,2.18649 1.91143,3.642765 6.13155,6.057275 13.70963,7.84385 23.20623,18.55107 28.7168,32.37759 3.13209,7.8587 3.24547,8.64579 3.26168,22.64173 0.0164,14.18885 -0.0659,14.74678 -3.83634,25.999996 -4.25914,12.71177 -13.42171,33.47913 -14.94253,35.59381 -0.65437,0.90989 -2.71717,-0.92268 -6.23673,-4.10992 -8.4532,-7.65504 -17.44551,-9.26158 -30.07377,-5.37289 -8.58509,2.64365 -11.46775,4.11828 -18.35534,9.3897 -10.19295,7.80116 -20.43821,14.21675 -31.75,19.88185 -6.78724,3.39914 -11.25,6.22588 -11.25,7.1258 0,1.30419 -6.93973,1.49165 -55.2206,1.49165 l -55.22059,0 z"/>
    <path fill="url(#tailShadowGrdnt)" filter="url(#tailShadowFltr)"
          d="m 142.28338,164.541 c 11.53371,-11.76751 17.94804,-23.40657 30.73365,-47.63416 27.68528,-52.461156 37.96261,-66.526846 55.4904,-80.394406 26.94069,-21.314822 62.71381,-27.0285037 95.04372,-16.375753 2.98948,0.98504 2.17702,1.949563 0.68718,3.439413 -1.48984,1.489844 -1.354,1.140234 -2.85564,-0.076 -1.31842,-1.067841 -1.03142,-1.423074 -1.95439,-0.489947 -0.29937,0.302664 -0.81864,0.961977 0.0916,1.967791 1.58945,1.756316 1.35579,1.828736 -5.90063,1.828736 -4.15559,0 -12.76185,0.89005 -19.12502,1.97789 -24.39541,4.1706 -30.25542,7.68568 -51.8259,31.08729 -12.23991,13.27898 -14.4515,16.17689 -27.8059,36.43482 -22.37659,33.944116 -30.40383,44.723106 -46.97154,63.073416 -12.357,13.68654 -13.66069,14.42658 -25.4147,14.42658 l -10.89732,0 10.70448,-9.26564 z"/>
    <!-- Outline -->
    <path fill="#724e50" filter="url(#browShadowFltr)"
          d="m 51.759714,37.787654 c -0.27224,-0.0523 -1.28682,0.38559 -3,1.25 -4.51982,2.28055 -8.75,6.43267 -8.75,8.59374 0,0.9971 0.61632,2.41124 1.16632,2.41124 0.55,0 0.83368,-1.42426 0.83368,-2.41124 0,-0.98699 2.25,-3.49657 5,-5.59374 3.62514,-2.76457 5.20373,-4.1629 4.75,-4.25 z m -16.15625,8.93749 c -0.41781,-0.012 -0.53705,1.07848 -0.0312,3.09375 0.36139,1.4399 1.07212,2.625 1.5625,2.625 1.12779,0 1.12864,-0.29643 -0.125,-3.59375 -0.55449,-1.45843 -1.08128,-2.11568 -1.40625,-2.125 z"/>
    <path fill="#000000"
          d="m 288.88159,13.641314 c -16.60911,0.05774 -18.66438,0.26182 -26.78125,2.75 -17.1732,5.26435 -28.57878,12.41274 -43.21875,27.125 -15.68033,15.75775 -25.93787,31.30515 -44.625,67.562496 -21.48333,41.68262 -28.05768,51.40565 -39.84375,58.96875 -2.75925,1.7706 -5.03125,3.40733 -5.03125,3.625 0,0.21766 0.9875,0.40625 2.1875,0.40625 3.25388,0 18.07497,-15.69077 26.46875,-28.03125 3.92067,-5.76414 12.83507,-21.21481 19.8125,-34.34375 22.28702,-41.935956 27.75842,-50.686266 39.34375,-62.812496 22.10738,-23.13953 48.60606,-33.99686 79.59375,-32.59375 12.14652,0.54999 26.73954,3.89579 29.625,6.78125 0.93906,0.93906 3.67783,2.40475 6.09375,3.25 2.41593,0.84524 5.275,1.8744 6.375,2.28125 4.07094,1.50569 -5.23736,-4.77688 -12,-8.09375 -12.1159,-5.94248 -17.73544,-6.9455 -38,-6.875 z m 30.1875,8.46875 c -0.42352,0.03238 -0.6875,0.321549 -0.6875,0.875 0,1.03404 5.29198,5.25993 12,9.5625 6.79715,4.35973 15.69873,13.24781 19.46875,19.46875 6.22841,10.27755 8.036,17.78138 8,33.0625 -0.0315,13.39599 -0.0464,13.60401 -4.625,26.999996 -2.53778,7.425 -6.69232,17.92505 -9.21875,23.34375 l -4.59375,9.84375 -5,-4.5 c -5.62756,-5.05965 -12.13916,-7.7051 -18.9375,-7.6875 -9.75801,0.0253 -22.59186,5.11311 -32.40625,12.8125 -12.83116,10.06604 -30.4107,20.08392 -45.1875,25.78125 -5.15873,1.98899 -5.55856,2.30175 -2.90625,2.34375 3.53065,0.0559 13.0788,-2.90535 20.9375,-6.5 2.95328,-1.35086 11.14741,-6.32189 18.1875,-11.0625 7.04008,-4.7406 17.28125,-10.87529 22.78125,-13.625 8.68243,-4.34074 11.01012,-5.06955 17.625,-5.5 9.33115,-0.60719 13.29905,0.57053 19.21875,5.78125 2.46826,2.17265 4.73437,3.96875 5.03125,3.96875 1.12933,0 15.49942,-28.79818 17.46875,-35 4.14994,-13.068966 5.41642,-30.014536 3.15625,-42.124996 -2.24798,-12.04514 -12.48524,-26.60018 -26.59375,-37.75 -4.33358,-3.42478 -8.93453,-7.11047 -10.21875,-8.1875 -1.56761,-1.3147 -2.79414,-1.960217 -3.5,-1.90625 z m -241.062496,5.09375 c -0.5972,0.02625 -1.28452,0.14491 -2.1875,0.3125 -2.83072,0.52537 -5.20305,2.05727 -8.5625,5.53125 -3.11105,3.21711 -6.27589,5.33549 -9.59375,6.4375 -4.45617,1.4801 -13.83523,7.35228 -13.03125,8.15625 0.17797,0.17797 3.29128,-1.19612 6.9375,-3.03125 3.64622,-1.83513 9.89242,-3.91328 13.875,-4.625 l 7.25,-1.28125 7.5625,3.90625 c 15.97549,8.22385 28.668916,25.36767 28.249996,38.1875 -0.27164,8.31297 -1.75446,13.71146 -6.75,24.624996 -6.432886,14.05364 -8.541286,22.8969 -8.687496,36.15625 -0.14756,13.38209 1.7117,19.77498 7.593746,26.15625 2.19457,2.38082 4.40487,4.34375 4.90625,4.34375 0.50137,0 0.0383,-0.94569 -1.03125,-2.09375 -6.576396,-7.05894 -10.732286,-22.71101 -9.093746,-34.28125 1.0974,-7.74899 1.11501,-7.81968 6.624996,-19.84375 3.96662,-8.6561 6.11637,-16.504426 7.84375,-28.812496 0.29052,-2.07007 2.54198,-6.30955 5.4375,-10.28125 5.32619,-7.30579 13.03125,-21.02077 13.03125,-23.15625 0,-2.1363 -2.67961,-2.63493 -17.46875,-3.125 l -14.031246,-0.4375 -4,-3.34375 c -2.61477,-2.18374 -4.60573,-5.05303 -5.75,-8.25 -0.96277,-2.68985 -3.00097,-6.41599 -4.5625,-8.28125 -1.96684,-2.3494 -2.77091,-3.0475 -4.5625,-2.96875 z m -2.21875,3 c 0.28863,-6.4e-4 0.58813,0.03172 0.90625,0.0625 2.71628,0.26283 3.64281,1.10562 6.03125,5.5625 1.54741,2.8875 2.44741,5.2124 2,5.1875 -0.44741,-0.02485 -2.86875,-1.13654 -5.34375,-2.46875 -3.54773,-1.90958 -5.45227,-2.29837 -9,-1.875 l -4.5,0.53125 3.8125,-3.625 c 2.64491,-2.52581 4.07335,-3.3705 6.09375,-3.375 z m -24.65625,7.21875 c -0.27224,-0.05226 -1.28682,0.38559 -3,1.25 -4.51982,2.28055 -8.75,6.43268 -8.75,8.59375 0,0.9971 0.45,1.8125 1,1.8125 0.55,0 1,-0.82552 1,-1.8125 0,-0.98699 2.25,-3.49657 5,-5.59375 3.62514,-2.76457 5.20373,-4.1629 4.75,-4.25 z m -16.15625,8.9375 c -0.41781,-0.01198 -0.53705,1.07848 -0.03125,3.09375 0.36139,1.4399 1.07212,2.625 1.5625,2.625 1.12779,0 1.12864,-0.29643 -0.125,-3.59375 -0.55449,-1.45843 -1.08128,-2.11568 -1.40625,-2.125 z m 66.593746,6 c 5.78367,-0.19855 21.97788,0.72627 23.5,1.5625 1.37895,0.75758 -2.61751,9.31063 -8.84375,18.90625 -4.20224,6.47631 -5.84375,7.67269 -5.84375,4.28125 0,-1.08745 -1.06584,-4.90761 -2.40625,-8.46875 l -2.4375,-6.46875 5.6875,-0.375 5.65625,-0.34375 -6.125,-0.1875 c -5.95001,-0.18289 -6.2434,-0.31017 -8.5,-3.9375 -1.2831,-2.0625 -2.505076,-4.14767 -2.718746,-4.625 -0.08055,-0.17995 0.696556,-0.29793 2.031246,-0.34375 z m -68.531246,1.875 c -2.1964,0.16331 -10.85289,4.76347 -16.15625,8.6875 -2.75,2.03477 -6.2375,4.24534 -7.7499998,4.90625 -4.38153,1.91457 -3.85154,8.11852 1.6562498,19.59375 4.29357,8.94546 10.8345,16.649066 18.59375,21.874996 l 2.5,1.65625 -2.28125,0.0625 c -3.01084,0.0692 -11.79877,4.57885 -12.5,6.40625 -0.64527,1.68153 3.0591,2.65125 10.15625,2.65625 l 4.625,0 -6.96875,3.53125 c -14.22133,7.16302 -21.5141798,17.68626 -22.3124998,32.21875 -0.25173,4.58236 -0.06452,8.25 0.4375,8.25 0.4971,0 1.45084,-3.87898 2.09375,-8.59375 0.77755,-5.70218 1.98875,-9.99838 3.65625,-12.84375 3.1826098,-5.43071 12.7701298,-14.31258 20.7187498,-19.21875 6.0998,-3.76501 6.10007,-3.78838 3.25,-4.46875 -1.58096,-0.37741 -5.00186,-0.98129 -7.625,-1.34375 -2.62315,-0.36245 -4.55198,-1.03071 -4.28125,-1.46875 0.27072,-0.43804 3.14639,-1.5316 6.375,-2.4375 l 5.84375,-1.65625 6.75,3.53125 c 7.77085,4.05045 13.80585,5.01733 7,1.125 -5.72322,-3.27315 -10.48246,-6.68554 -13.59375,-9.78125 -3.5899,-3.57193 -4.58804,-12.526586 -2.5,-22.343746 2.1767,-10.23399 3.15004,-12.14383 7.625,-14.96875 2.22136,-1.40229 4.03125,-3.0194 4.03125,-3.5625 0,-3.14865 -7.2042,2.02696 -10.375,7.4375 -4.34711,7.41779 -5.7226,12.49471 -5.75,21.09375 l -0.03125,7.999996 -5.28125,-5.656246 c -2.8983,-3.10394 -6.41546,-7.97754 -7.84375,-10.84375 -2.4844,-4.98554 -2.54144,-5.33332 -0.9375,-7.78125 0.92211,-1.40732 1.92845,-4.5891 2.21875,-7.09375 0.52511,-4.53052 0.56533,-4.59219 10.21875,-10.59375 5.33677,-3.31789 9.28531,-6.16716 8.78125,-6.34375 -0.08625,-0.03022 -0.19732,-0.04214 -0.34375,-0.03125 z m 44.84375,5.03125 -14.5,0.53125 c -7.975,0.29682 -14.6207,0.65096 -14.78125,0.78125 -0.16056,0.13029 1.18944,1.18441 3,2.34375 3.68972,2.36262 9.96026,2.83066 11.96875,0.875 0.72679,-0.70767 4.2375,-2.01819 7.8125,-2.90625 l 6.5,-1.625 z m -66.875,9.9375 c 1.70586,-0.08988 1.79313,1.85709 0.21875,5.3125 -1.6903498,3.70991 -2.9825698,3.12327 -2.6249998,-1.1875 0.2169,-2.61495 0.80823,-3.83072 2.0312498,-4.0625 0.12802,-0.02426 0.26128,-0.05651 0.375,-0.0625 z m 64.28125,61.437496 c -0.30178,-0.0189 -0.50258,0.04 -0.59375,0.1875 -0.34124,0.55214 1.37932,1.89156 3.8125,3 8.58772,3.91216 12.12097,11.12297 11.4375,23.21875 -0.25491,4.51132 -0.93437,7.3439 -2.09375,8.625 -0.9468,1.0462 -1.7049,2.53081 -1.6875,3.3125 0.04436,1.99511 4.95635,-3.74031 5.03125,-5.875 0.55287,-15.75675 -0.3853,-20.77829 -4.78125,-25.78125 -2.37875,-2.70721 -9.01254,-6.55508 -11.125,-6.6875 z m -18.53125,12.6875 c -0.96738,-0.0299 -2.61937,0.0575 -4.875,0.1875 -9.68474,0.55803 -20.43132,3.72514 -26.28125,7.75 -7.83475,5.39045 -12.3725,13.97242 -10.78125,20.3125 0.39449,1.57175 1.31231,2.5 2.5,2.5 1.67778,0 1.78837,-0.35213 0.8125,-2.9375 -1.45892,-3.86514 1.16238,-9.85623 6.40625,-14.59375 4.57663,-4.13471 7.68637,-5.48867 20.53125,-9 11.35846,-3.10499 14.58965,-4.12911 11.6875,-4.21875 z M 8.8190942,153.36006 c -0.06647,0.013 -0.1369,0.0432 -0.21875,0.0937 -0.91166,0.56344 -5.21875,16.63865 -5.21875,19.5 0,0.67133 1.85831,1.125 4.59375,1.125 l 4.5937498,0 -2.6562498,-3.1875 c -2.76284,-3.28345 -2.88071,-5.05384 -0.875,-15.1875 0.31789,-1.60611 0.24657,-2.43467 -0.21875,-2.34375 z m 41.9999998,6.875 c -2.33073,0.0195 -4.0759,0.27439 -5.375,0.8125 -3.6044,1.49299 -3.62249,1.4955 -1.0625,4.75 1.1,1.39842 2,3.83042 2,5.40625 0,1.98288 0.52702,2.875 1.65625,2.875 1.3136,0 1.52296,-0.73101 1.09375,-3.75 -0.29322,-2.0625 -0.86197,-4.5375 -1.25,-5.5 -0.64006,-1.5876 0.10404,-1.75 8.09375,-1.75 10.56154,0 10.37105,-1.63207 -0.3125,-2.625 -1.83968,-0.17098 -3.44531,-0.23043 -4.84375,-0.21875 z"/>
  </g>
</svg>
